<svg width="800" height="600" xmlns="http://www.w3.org/2000/svg">
  <!-- Background -->
  <rect width="800" height="600" fill="#3b82f6" />
  
  <!-- Wireless Communication Network Illustration -->
  <g transform="translate(400, 300)">
    <!-- Main Tower -->
    <rect x="-15" y="-200" width="30" height="300" fill="#1e3a8a" />
    <polygon points="-50,-200 50,-200 0,-250" fill="#1e3a8a" />
    
    <!-- Signal Waves -->
    <circle cx="0" cy="-180" r="30" fill="none" stroke="#ffffff" stroke-width="4" stroke-dasharray="5,5" />
    <circle cx="0" cy="-180" r="60" fill="none" stroke="#ffffff" stroke-width="3" stroke-dasharray="5,5" />
    <circle cx="0" cy="-180" r="90" fill="none" stroke="#ffffff" stroke-width="2" stroke-dasharray="5,5" />
    <circle cx="0" cy="-180" r="120" fill="none" stroke="#ffffff" stroke-width="1" stroke-dasharray="5,5" />
    
    <!-- Network Nodes -->
    <circle cx="-150" cy="0" r="40" fill="#f1f5f9" />
    <circle cx="150" cy="0" r="40" fill="#f1f5f9" />
    <circle cx="-75" cy="130" r="40" fill="#f1f5f9" />
    <circle cx="75" cy="130" r="40" fill="#f1f5f9" />
    
    <!-- Connection Lines -->
    <line x1="0" y1="-180" x2="-150" y2="0" stroke="#ffffff" stroke-width="3" />
    <line x1="0" y1="-180" x2="150" y2="0" stroke="#ffffff" stroke-width="3" />
    <line x1="0" y1="-180" x2="-75" y2="130" stroke="#ffffff" stroke-width="3" />
    <line x1="0" y1="-180" x2="75" y2="130" stroke="#ffffff" stroke-width="3" />
    
    <!-- Node Details -->
    <circle cx="-150" cy="0" r="20" fill="#1e3a8a" />
    <circle cx="150" cy="0" r="20" fill="#1e3a8a" />
    <circle cx="-75" cy="130" r="20" fill="#1e3a8a" />
    <circle cx="75" cy="130" r="20" fill="#1e3a8a" />
  </g>
</svg>
