<svg width="800" height="600" xmlns="http://www.w3.org/2000/svg">
  <!-- Background -->
  <rect width="800" height="600" fill="#1e3a8a" />
  
  <!-- Smart Energy Monitoring System Illustration -->
  <g transform="translate(400, 300)">
    <!-- House -->
    <rect x="-150" y="-120" width="300" height="200" rx="10" fill="#ffffff" />
    <polygon points="-150,-120 0,-200 150,-120" fill="#3b82f6" />
    
    <!-- Door -->
    <rect x="-30" y="20" width="60" height="80" rx="5" fill="#1e3a8a" />
    <circle cx="20" cy="60" r="5" fill="#ffffff" />
    
    <!-- Windows -->
    <rect x="-120" y="-80" width="60" height="60" rx="5" fill="#3b82f6" />
    <rect x="60" y="-80" width="60" height="60" rx="5" fill="#3b82f6" />
    
    <!-- Energy Monitoring Elements -->
    <circle cx="0" cy="-40" r="40" fill="#f1f5f9" stroke="#3b82f6" stroke-width="5" />
    <path d="M0,-60 L0,-20 L20,-40 Z" fill="#3b82f6" />
    
    <!-- Power Lines -->
    <line x1="-200" y1="-150" x2="-150" y2="-120" stroke="#ffffff" stroke-width="5" />
    <line x1="200" y1="-150" x2="150" y2="-120" stroke="#ffffff" stroke-width="5" />
    
    <!-- IoT Signals -->
    <circle cx="0" cy="-150" r="30" fill="none" stroke="#ffffff" stroke-width="3" stroke-dasharray="10,5" />
    <circle cx="0" cy="-150" r="50" fill="none" stroke="#ffffff" stroke-width="2" stroke-dasharray="10,5" />
    <circle cx="0" cy="-150" r="70" fill="none" stroke="#ffffff" stroke-width="1" stroke-dasharray="10,5" />
  </g>
</svg>
